<svg width="183" height="183" viewBox="0 0 183 183" fill="none" xmlns="http://www.w3.org/2000/svg">
<path d="M183.001 183H0V0H183.001V183ZM52.2227 31.5615C49.2579 31.5621 50.0754 40.457 42.5098 44.5469H35.1475C31.8755 43.6948 25.4951 40.948 26.1494 36.7764C26.9674 31.5617 21.4459 29.0055 19.6055 36.7764C18.1332 42.993 22.3333 49.9279 24.6172 52.6182L11.2109 75.9238C9.69861 80.4612 10.263 89.0404 24.6172 87.0605H33.4854L37.6934 85.4541L46.208 75.9238V80.8672L39.3057 89.0137L51.833 116.663V151.438H62.7871V114.771H66.2266L80.1113 109.27H129.536L141.842 113.78H153.955L154.072 119.509L154.725 151.438H166.453V66.6133C166.389 59.6134 162.069 46.3143 145.303 49.1162C128.536 51.918 77.0446 50.2837 53.3945 49.1162C55.6966 44.4237 58.6847 34.3427 52.2227 31.5615ZM67.373 118.309V151.438H80.1113V113.523L67.373 118.309ZM129.536 151.438H141.842V118.309L129.536 114.345V151.438Z" fill="#D26B34"/>
</svg>
