<svg width="183" height="183" viewBox="0 0 183 183" fill="none" xmlns="http://www.w3.org/2000/svg">
<path d="M183 183H0V0H183V183ZM82.9492 52.4668C79.3295 52.5395 75.7842 52.787 72.3359 53.1943L76.2764 56.1758C79.0737 58.2927 80.5507 61.1358 80.5508 64.0566C80.5505 66.9775 79.074 69.8217 76.2764 71.9385L73.249 74.2285C71.8634 75.277 71.4191 76.5846 71.6201 77.7412C71.8253 78.9192 72.7394 80.1582 74.5098 80.9316C77.5862 82.2757 79.5322 84.6068 79.9863 87.2168C80.4439 89.8481 79.3462 92.5482 76.7744 94.4941L73.7461 96.7861C71.9367 98.1555 71.1094 99.8821 71.1094 101.53C71.1098 103.178 71.9369 104.904 73.7461 106.273L75.0107 107.23C78.1576 109.612 79.8096 112.802 79.8096 116.069C79.8092 119.336 78.1575 122.526 75.0107 124.907C73.1606 126.307 72.1621 128.03 71.9141 129.75C76.2068 130.275 80.6522 130.554 85.2061 130.554C85.5337 130.554 85.861 130.549 86.1875 130.546C86.2703 127.367 87.9164 124.279 90.9824 121.959C93.1409 120.326 94.1423 118.253 94.1426 116.259C94.1425 114.264 93.1409 112.191 90.9824 110.558L89.7168 109.601C86.9193 107.484 85.4426 104.64 85.4424 101.719C85.4425 98.7979 86.9193 95.9547 89.7168 93.8379L92.7451 91.5469C94.1308 90.4984 94.5751 89.1907 94.374 88.0342C94.1689 86.8561 93.2539 85.6173 91.4834 84.8438C88.4071 83.4998 86.4612 81.1684 86.0068 78.5586C85.5492 75.9272 86.647 73.2272 89.2188 71.2812L92.2471 68.9893C94.0563 67.6201 94.8835 65.8941 94.8838 64.2461C94.8837 62.598 94.0565 60.8712 92.2471 59.502L82.9492 52.4668ZM158.14 69.7246C154.838 73.1244 151.299 76.283 147.554 79.1777C144.712 74.0932 140.16 69.4724 134.303 65.5566C133.928 68.0059 132.506 70.3295 130.129 72.1279L127.102 74.418C125.716 75.4664 125.272 76.7741 125.473 77.9307C125.678 79.1087 126.592 80.3476 128.362 81.1211C131.439 82.4651 133.385 84.7964 133.839 87.4062C134.297 90.0376 133.199 92.7376 130.627 94.6836L127.599 96.9756C125.789 98.3449 124.962 100.072 124.962 101.72C124.962 103.368 125.789 105.094 127.599 106.463L128.863 107.42C132.01 109.801 133.662 112.992 133.662 116.259C133.662 116.829 133.611 117.397 133.511 117.959C139.308 114.22 143.892 109.806 146.894 104.939C150.884 107.971 154.645 111.298 158.14 114.896L173.347 130.554L169.962 117.608C165.625 101.022 165.625 83.5989 169.962 67.0127L173.347 54.0674L158.14 69.7246ZM95.4922 56.3652C98.2895 58.4821 99.7665 61.3253 99.7666 64.2461C99.7664 67.167 98.2899 70.0111 95.4922 72.1279L92.4648 74.418C91.0793 75.4664 90.6351 76.7741 90.8359 77.9307C91.041 79.1086 91.9553 80.3476 93.7256 81.1211C96.8019 82.4651 98.7479 84.7964 99.2021 87.4062C99.6598 90.0376 98.562 92.7376 95.9902 94.6836L92.9619 96.9756C91.1526 98.3449 90.3253 100.072 90.3252 101.72C90.3255 103.368 91.1529 105.094 92.9619 106.463L94.2266 107.42C97.3734 109.801 99.0253 112.992 99.0254 116.259C99.0251 119.526 97.3734 122.716 94.2266 125.097C92.2124 126.621 91.2059 128.528 91.0801 130.396C96.1209 130.131 100.998 129.526 105.646 128.622C106.215 126.142 107.756 123.807 110.198 121.959C112.357 120.326 113.358 118.253 113.358 116.259C113.358 114.264 112.357 112.191 110.198 110.558L108.933 109.601C106.135 107.484 104.658 104.64 104.658 101.719C104.658 98.7979 106.135 95.9547 108.933 93.8379L111.961 91.5469C113.347 90.4984 113.791 89.1907 113.59 88.0342C113.385 86.8561 112.47 85.6173 110.699 84.8438C107.623 83.4998 105.677 81.1684 105.223 78.5586C104.765 75.9272 105.863 73.2272 108.435 71.2812L111.463 68.9893C113.272 67.6201 114.099 65.8941 114.1 64.2461C114.1 62.598 113.272 60.8712 111.463 59.502L104.365 54.1318C99.9165 53.3264 95.2675 52.7936 90.4736 52.5674L95.4922 56.3652ZM66.1582 54.1123C39.1707 58.9669 19.5216 73.867 19.5215 91.498C19.5216 97.9395 22.145 104.017 26.79 109.373C41.405 103.952 70.7577 106.031 62.8672 106.347C57.5024 106.561 46.1453 112.833 37.4463 118.309C45.423 123.33 55.6158 127.093 67.0938 129.047C67.5348 126.339 69.1238 123.769 71.7666 121.77C73.925 120.136 74.9264 118.064 74.9268 116.069C74.9268 114.075 73.9251 112.002 71.7666 110.368L70.501 109.411C67.7034 107.294 66.2268 104.45 66.2266 101.529C66.2266 98.6084 67.7035 95.7653 70.501 93.6484L73.5293 91.3574C74.9148 90.3091 75.3592 89.0012 75.1582 87.8447C74.9531 86.6666 74.0382 85.4279 72.2676 84.6543C69.1912 83.3104 67.2454 80.9789 66.791 78.3691C66.3333 75.7377 67.4312 73.0379 70.0029 71.0918L73.0312 68.7998C74.8404 67.4307 75.6676 65.7046 75.668 64.0566C75.668 62.4085 74.8407 60.6818 73.0312 59.3125L66.1582 54.1123ZM115.173 56.7344C117.668 58.8066 118.982 61.4917 118.982 64.2461C118.982 67.167 117.506 70.0111 114.708 72.1279L111.681 74.418C110.295 75.4664 109.851 76.7741 110.052 77.9307C110.257 79.1086 111.171 80.3476 112.941 81.1211C116.018 82.4651 117.964 84.7964 118.418 87.4062C118.876 90.0376 117.778 92.7376 115.206 94.6836L112.178 96.9756C110.368 98.3449 109.541 100.072 109.541 101.72C109.541 103.368 110.369 105.094 112.178 106.463L113.442 107.42C116.589 109.801 118.241 112.992 118.241 116.259C118.241 119.526 116.589 122.716 113.442 125.097C112.54 125.779 111.842 126.54 111.333 127.338C116.118 126.103 120.608 124.541 124.721 122.696C125.005 122.443 125.305 122.197 125.619 121.959C127.778 120.326 128.779 118.253 128.779 116.259C128.779 114.264 127.778 112.191 125.619 110.558L124.354 109.601C121.556 107.484 120.079 104.64 120.079 101.719C120.079 98.7979 121.556 95.9547 124.354 93.8379L127.382 91.5469C128.767 90.4985 129.212 89.1907 129.011 88.0342C128.806 86.8561 127.891 85.6173 126.12 84.8438C123.044 83.4998 121.098 81.1685 120.644 78.5586C120.186 75.9272 121.284 73.2272 123.855 71.2812L126.884 68.9893C128.693 67.6201 129.52 65.8941 129.521 64.2461C129.52 63.6676 129.416 63.08 129.205 62.501C124.988 60.2371 120.274 58.2922 115.173 56.7344ZM75.4893 123.197C75.5459 123.144 75.603 123.092 75.6582 123.038L75.6758 123.021C75.6148 123.08 75.552 123.138 75.4893 123.197ZM94.8867 118.136C94.8584 118.239 94.8281 118.343 94.7949 118.446H94.7959C94.8291 118.343 94.8587 118.239 94.8867 118.136ZM114.103 118.136C114.074 118.239 114.044 118.343 114.011 118.446H114.012C114.045 118.343 114.074 118.239 114.103 118.136ZM74.8008 112.199C74.9674 112.471 75.1165 112.748 75.2461 113.028L75.0381 112.61C74.964 112.472 74.8841 112.335 74.8008 112.199ZM128.956 108.782C128.923 108.754 128.891 108.724 128.857 108.695L128.793 108.643C128.848 108.689 128.902 108.736 128.956 108.782ZM72.668 83.7383C72.7938 83.7933 72.9168 83.8506 73.0361 83.9102V83.9092C72.9168 83.8497 72.7937 83.7923 72.668 83.7373C72.4914 83.6602 72.3189 83.5796 72.1514 83.4961C72.319 83.5798 72.4913 83.6611 72.668 83.7383ZM72.6455 73.4307C72.5922 73.471 72.5415 73.5144 72.4902 73.5557L72.6455 73.4316L75.6729 71.1406L72.6455 73.4307ZM124.459 72.0781L124.246 72.2441C124.193 72.2866 124.141 72.3299 124.09 72.373C124.209 72.2733 124.332 72.1754 124.459 72.0791L127.487 69.7871L124.459 72.0781ZM89.6094 72.2441C89.5937 72.2567 89.578 72.2695 89.5625 72.2822C89.6468 72.2135 89.7338 72.1461 89.8223 72.0791V72.0781C89.75 72.1328 89.6788 72.1884 89.6094 72.2441ZM108.825 72.2441C108.81 72.2567 108.794 72.2695 108.778 72.2822C108.863 72.2135 108.95 72.1461 109.038 72.0791V72.0781C108.966 72.1328 108.895 72.1884 108.825 72.2441Z" fill="#2D8BA2"/>
</svg>
