<svg width="183" height="183" viewBox="0 0 183 183" fill="none" xmlns="http://www.w3.org/2000/svg">
<path d="M183.001 183H0V0H183.001V183ZM50.5488 15.1777C48.2017 11.2119 41.7106 5.65965 34.5234 15.1777C29.5054 14.6921 20.9745 16.5374 26.9961 27.8037C25.5392 30.313 22.6739 36.4965 22.8682 41.1582C20.6483 43.126 16.209 48.8741 16.209 56.1279C23.1455 52.8303 36.1308 52.7853 32.583 78.9844C28.6884 107.745 25.0577 151.497 86.8447 151.795L86.7549 151.809L85.9844 164.601L74.0166 168.195L71.4473 171.218L67.7979 173.078H94.4609L95.3438 151.58C101.763 151.236 108.798 150.48 116.503 149.258C101.266 148.803 70.5865 138.137 69.7676 99.1113C70.3268 125.744 116.571 163.722 149.593 120.603C152.89 115.372 160.236 104.98 163.238 105.252C166.24 105.525 158.239 101.666 153.862 99.7031C155.973 97.5994 160.804 93.3929 163.238 93.3926C165.672 93.3926 156.577 89.321 151.725 87.2852C158.194 82.7701 170.024 70.2573 165.962 56.1279C158.246 64.7352 134.365 81.9981 100.566 82.1924C91.1777 82.1922 71.333 75.7815 67.0596 50.1416C64.6315 43.343 59.2891 29.7461 57.3467 29.7461C61.0687 25.1328 64.9202 15.7607 50.5488 15.1777Z" fill="#A28F2D"/>
</svg>
