<?xml version="1.0" encoding="UTF-8" standalone="no"?>
<svg
   aria-hidden="true"
   height="24"
   viewBox="0 0 24 24"
   version="1.1"
   width="24"
   data-view-component="true"
   class="octicon octicon-mark-github"
   id="svg1"
   sodipodi:docname="github.svg"
   inkscape:version="1.3 (0e150ed6c4, 2023-07-21)"
   xmlns:inkscape="http://www.inkscape.org/namespaces/inkscape"
   xmlns:sodipodi="http://sodipodi.sourceforge.net/DTD/sodipodi-0.dtd"
   xmlns="http://www.w3.org/2000/svg"
   xmlns:svg="http://www.w3.org/2000/svg">
  <defs
     id="defs1" />
  <sodipodi:namedview
     id="namedview1"
     pagecolor="#ffffff"
     bordercolor="#000000"
     borderopacity="0.25"
     inkscape:showpageshadow="2"
     inkscape:pageopacity="0.0"
     inkscape:pagecheckerboard="0"
     inkscape:deskcolor="#d1d1d1"
     inkscape:zoom="32.375"
     inkscape:cx="11.984556"
     inkscape:cy="13.019305"
     inkscape:window-width="1920"
     inkscape:window-height="991"
     inkscape:window-x="-9"
     inkscape:window-y="-9"
     inkscape:window-maximized="1"
     inkscape:current-layer="svg1" />
  <path
     d="m 12.499995,2.0200249 c -5.6345458,0 -10.1978714,4.5633257 -10.1978714,10.1978721 0,4.512779 2.9192515,8.324123 6.9726832,9.674676 0.509894,0.08957 0.7005501,-0.216372 0.7005501,-0.484178 0,-0.242088 -0.01239,-1.044617 -0.01239,-1.899464 C 7.4010835,19.980694 6.7386652,18.884644 6.5347077,18.31179 6.4194274,18.018267 5.9228354,17.112875 5.4883174,16.870786 5.1318352,16.679243 4.6219418,16.207481 5.4759007,16.195066 c 0.8034148,-0.01239 1.377156,0.739568 1.5686984,1.045504 0.9178085,1.542983 2.3836419,1.108464 2.9697989,0.840659 0.08868,-0.662418 0.356482,-1.108464 0.650003,-1.363854 -2.2692489,-0.254504 -4.6395889,-1.134181 -4.6395889,-5.035088 0,-1.108465 0.3946133,-2.0262728 1.0446167,-2.740124 C 6.96745,8.6867727 6.610968,7.6412688 7.1714076,6.2392831 c 0,0 0.8539609,-0.2678049 2.8048583,1.0455035 0.8158301,-0.2296737 1.6822061,-0.3440672 2.5494681,-0.3440672 0.866376,0 1.733639,0.1152804 2.549468,0.3440672 1.950897,-1.3257232 2.803971,-1.0455035 2.803971,-1.0455035 0.561326,1.4019857 0.203957,2.4474896 0.101973,2.7028799 0.650004,0.7138512 1.045504,1.618357 1.045504,2.740124 0,3.913321 -2.383642,4.779697 -4.65289,5.035088 0.369784,0.319238 0.688135,0.931109 0.688135,1.887048 0,1.363855 -0.01239,2.459905 -0.01239,2.803972 0,0.267806 0.191542,0.587044 0.700549,0.485065 4.029488,-1.35144 6.947854,-5.176085 6.947854,-9.675563 0,-5.6345464 -4.563326,-10.1978721 -10.197873,-10.1978721 z"
     fill="#f0f6fc"
     id="path1"
     style="fill:#000000;stroke-width:0.886771" />
</svg>
