<svg width="183" height="183" viewBox="0 0 183 183" fill="none" xmlns="http://www.w3.org/2000/svg">
<path d="M183.001 183H0V0H183.001V183ZM163.91 29.1211C160.76 28.0711 157.358 29.7933 156.34 32.9541L156.292 33.1025C155.541 35.4368 156.254 37.9945 158.105 39.6025L158.318 39.7871L154.944 40.8984C153.555 40.2748 152.083 39.6922 150.525 39.1562C121.236 34.5147 55.8087 34.4778 28.4043 71.4619C26.0225 70.5689 19.2646 69.1781 11.2891 70.7588L25.21 85.3994L13.3545 113.69L9.85156 115.218C11.3819 118.771 15.1694 126.141 18.0752 127.194L26.0371 125.63L53.8867 114.49C53.9331 112.309 53.6913 106.72 52.3545 101.818L56.5322 100.147C60.0135 108.642 65.5837 118.946 60.0137 145.961H69.3438L80.6221 112.959C88.5129 115.233 110.283 118.417 134.233 112.959L129.639 105.996L132.702 102.933L151.779 119.503L149.134 145.961H160.736L166.4 114.49L161.944 105.996C175.368 88.1389 183.346 58.9548 160.929 44.1621C161.892 43.7602 162.774 43.1907 163.532 42.4785C166.303 42.8303 169.192 41.7732 171.06 39.4082L173.183 36.7188L171.221 35.1699L169.259 33.6201L167.976 35.2451C168.172 32.6422 166.641 30.0317 163.91 29.1211ZM84.0498 145.961H93.1748L96.2803 120.582L84.0498 119.503V145.961ZM123.848 121.747L116.665 145.961H127.466L138.557 118.685L123.848 121.747ZM161.099 34.4873C161.264 33.9738 161.817 33.6938 162.329 33.8643C162.958 34.0743 163.196 34.8398 162.796 35.3691L162.026 36.3857L161.384 35.8271C161.044 35.5322 160.913 35.0629 161.051 34.6348L161.099 34.4873Z" fill="#D23434"/>
</svg>
