<svg width="94" height="95" viewBox="0 0 94 95" fill="none" xmlns="http://www.w3.org/2000/svg">
<path d="M68.036 89.368C69.5 88.595 76.229 79.53 71.608 71.165C68.185 64.973 52.794 58.192 38.703 50.889C25.39 43.99 15.085 35.848 13.004 23.152C11.595 14.559 19.601 8.51901 19.601 8.51901C18.295 9.60001 17.33 11.646 17.673 16.334C19.598 42.609 82.263 47.623 82.345 69.219C82.388 80.665 68.036 89.368 68.036 89.368Z" fill="white"/>
<path d="M73.8 27.973C77.546 29.08 86.086 27.802 86.831 24.099C87.283 21.857 84.29 20.212 82.526 19.473C83.916 17.588 80.821 14.948 79.023 14.949C73.481 15.046 72.561 23.627 73.8 27.973ZM80.323 17.562C80.679 21.041 75.516 15.623 80.323 17.562ZM53.438 88.284C49.361 86.417 49.106 86.372 45.996 84.622C46.093 89.964 46.404 89.692 46.733 94.046C50.884 88.886 50.229 96.023 54.955 93.851C52.014 91.629 50.625 91.047 53.438 88.284ZM82.585 41.48C83.971 41.917 85.231 42.696 86.4 43.549C87.141 43.122 88.836 42.48 89.101 41.863C87.806 41.269 86.262 40.838 84.821 40.865C84.199 40.936 82.794 41.063 82.585 41.48ZM81.912 44.091C82.333 44.881 82.729 46.081 83.662 45.099C84.308 44.619 86.42 44.109 84.808 43.46C83.672 42.717 82.425 42.135 81.113 41.786C80.265 42.282 81.816 43.369 81.912 44.091ZM79.007 46.153C78.974 46.836 78.878 48.182 79.813 47.26C80.552 46.676 82.598 46.406 81.457 45.23C80.936 44.317 80.367 43.216 79.817 42.32C78.906 43.183 79.19 44.953 79.007 46.153ZM90.076 42.51L89.822 42.72C89.164 43.318 87.539 43.606 87.388 44.308C88.261 44.929 88.787 46.236 89.519 46.744C90.437 46.282 91.332 45.774 92.228 45.27C91.632 44.262 91.062 43.376 90.076 42.51ZM78.256 45.547C78.231 44.898 78.451 43.52 78.356 42.97C76.759 44.503 75.311 45.817 75.404 49.693C76.231 49.391 77.33 48.54 78.149 48.142C78.387 47.419 78.104 46.388 78.256 45.547ZM86.338 44.649C85.444 45.364 83.781 45.696 83.334 46.608C83.906 47.426 84.289 48.778 84.997 49.256C86.136 47.698 87.361 47.95 88.526 47.286C88.099 46.245 87.186 45.378 86.338 44.649ZM89.931 47.805C90.465 48.725 90.581 50.058 91.061 50.83C91.885 50.364 92.742 49.949 93.554 49.459C93.524 48.278 93.218 47.087 92.642 46.059H92.601C91.812 46.695 90.272 47.032 89.931 47.805ZM83.975 49.812C83.423 48.864 82.954 47.813 82.338 46.918L82.294 46.908C81.383 47.68 79.532 47.954 79.278 49.085C79.519 50.049 79.717 51.056 80.261 51.906C81.355 50.415 82.756 50.539 83.975 49.812ZM90.028 51.305C89.857 50.185 89.585 49.058 89.013 48.069C87.939 49.222 86.018 48.901 85.382 50.353C85.905 51.254 86.38 52.185 86.939 53.066C87.984 52.509 89.029 51.922 90.028 51.305ZM79.372 52.202C78.804 51.265 78.613 50.128 78.27 49.127C77.498 49.758 76.104 50.315 75.678 51.177C75.444 51.715 75.502 51.493 75.783 52.496C75.93 53.023 76.146 53.503 76.435 53.974C77.17 52.886 78.86 52.95 79.372 52.202ZM93.451 50.517C92.739 51.178 91.15 51.333 91.038 52.32C91.115 53.683 91 55.049 90.734 56.387C91.624 55.82 92.223 54.726 92.726 53.778C93.183 52.767 93.58 51.586 93.506 50.511L93.451 50.517ZM82.917 55.327C83.846 54.67 85.472 54.255 85.949 53.394C85.399 52.533 84.99 51.444 84.368 50.704C83.299 51.492 81.361 51.93 80.852 52.948C81.402 53.846 82.098 54.66 82.917 55.327ZM89.527 57.443C90.15 56.217 90.205 54.715 90.246 53.344C90.193 53.072 90.294 52.542 90.112 52.384C89.298 52.992 87.928 53.308 87.416 54.02C88.15 55.078 88.652 56.802 89.527 57.443ZM81.803 55.562C81.02 54.889 80.469 53.916 79.825 53.171C78.925 53.747 77.716 54.261 76.841 54.854C77.283 55.455 77.993 56.558 78.611 57.072C78.918 57.327 79.26 57.098 79.612 57.169C80.224 56.622 81.998 56.326 81.803 55.562ZM87.382 55.931C87.079 55.432 86.841 54.867 86.483 54.416C85.638 54.956 84.268 55.361 83.781 56.077C85.115 57.006 86.585 57.794 88.185 58.169C88.947 57.755 87.491 56.613 87.382 55.931ZM86.774 58.646C85.722 58.042 84.265 57.559 83.225 56.712L83.027 56.57L82.834 56.427C82.071 56.961 81.109 57.281 80.404 57.841C81.086 58.237 81.804 58.739 82.576 58.92C83.944 59.241 85.424 59.01 86.774 58.646ZM6.853 25.815L8.808 28.159C8.808 28.159 9.63399 26.421 9.06799 25.034C7.71399 21.715 12.887 13.799 12.887 13.799C12.887 13.799 7.83899 18.736 5.84099 22.855C4.80299 24.997 6.853 25.815 6.853 25.815ZM4.99599 38.835C5.08799 38.572 5.126 36.478 5.187 35.447C5.208 35.128 5.293 34.079 5.291 34.057C5.483 34.128 6.77699 33.651 7.04799 33.298C7.26299 33.015 7.553 32.444 7.597 32.098C7.728 31.086 7.68599 30.266 7.02299 29.459C6.64199 28.997 6.295 28.757 5.717 28.673C5.319 28.614 5.15299 28.589 4.74899 28.622C4.41999 28.649 3.192 28.747 2.629 29.556C2.132 30.268 2.11599 30.55 2.16699 31.276C2.21899 32.03 2.706 32.75 2.987 33.13L2.993 33.206C2.989 33.326 2.94899 33.434 2.87099 33.532C2.64899 34.045 2.389 34.577 2.131 35.071C1.776 35.752 1.363 36.462 0.932999 37.099C0.826999 37.254 0.733989 37.311 0.700989 37.465C0.892989 37.282 3.30099 38.296 4.99599 38.835ZM0.819 48.603L1.60399 49.147L1.81799 50.627L1.10899 51.445L1.743 53.614L6.61299 52.316C6.61299 52.316 4.24099 43.706 3.36099 40.927C2.90099 39.473 1.923 40.164 1.465 40.733C1.147 41.126 1.44699 41.718 1.27699 42.028C0.872993 42.763 0.559998 42.934 0.559998 42.934L0.780991 44.316L0 45.435L0.0389862 46.215L0.969986 47.396L0.819 48.603ZM12.296 61.712C12.296 61.712 12.655 61.396 12.706 60.92C12.706 60.92 12.966 58.571 12.199 56.372C11.661 54.829 10.279 52.711 10.279 52.711C10.279 52.711 10.016 52.31 9.54399 52.238C9.54399 52.238 7.75899 51.97 6.36899 53.252C4.87999 54.627 1.02899 54.732 1.02899 54.732C1.02899 54.732 0.549986 54.745 0.482986 55.219C0.482986 55.219 0.13699 57.694 0.67099 59.981C1.28499 62.599 2.13499 63.954 2.13499 63.954C2.13499 63.954 2.39 64.358 2.868 64.353C2.868 64.353 6.43599 64.31 8.16199 63.939C10.3 63.483 12.296 61.712 12.296 61.712ZM7.78499 60.438C7.42199 61.096 6.59399 61.335 5.93399 60.972C5.27499 60.611 5.03699 59.781 5.39899 59.121C5.76199 58.464 6.58999 58.224 7.25099 58.586C7.90699 58.95 8.14699 59.778 7.78499 60.438ZM54.516 74.979C48.589 73.155 45.037 66.217 37.716 67.506C43.161 71.356 47.534 74.404 53.029 77.225C53.196 76.256 53.692 75.51 54.516 74.979ZM62.113 74.079C59.37 73.405 56.914 67.122 53.884 71.866C54.224 73.557 57.094 74.249 54.644 75.6C58.292 76.239 63.385 76.547 62.884 81.055C64.468 82.33 65.007 78.459 67.241 80.168C67.483 83.377 65.6 85.186 63.401 86.783C62.539 86.728 62.198 85.887 61.279 85.918C61.258 84.416 63.689 83.693 61.891 82.553C57.718 83.975 55.47 82.487 55.148 78.09C52.873 78.123 52.174 78.252 49.294 77.985C47.603 82.475 52.688 82.942 55.044 83.946C60.969 102.251 80.813 73.569 62.113 74.079ZM61.016 81.434C63.199 76.877 55.879 75.141 56.153 79.83C56.971 82.149 59.266 82.717 61.016 81.434ZM66.056 80.417C65.236 88.208 60.439 85.032 66.056 80.417ZM62.809 67.922C60.778 66.807 50.706 61.175 60.962 70.672C63.963 74.586 64.27 69.582 70.088 74.166C68.613 71.178 64.028 68.592 62.809 67.922ZM72.388 34.823C72.388 36.346 73.622 37.579 75.146 37.579C76.667 37.579 77.903 36.346 77.903 34.823C77.903 33.301 76.668 32.066 75.146 32.066C73.623 32.066 72.388 33.3 72.388 34.823ZM70.445 31.302C70.445 30.255 69.594 29.404 68.546 29.404C67.498 29.404 66.648 30.255 66.648 31.302C66.648 32.352 67.499 33.201 68.546 33.201C69.594 33.201 70.445 32.352 70.445 31.302ZM70.411 47.713C70.411 47.713 74.136 40.053 77.032 40.4C79.416 40.686 68.777 36.464 68.777 36.464L69.25 37.574C69.25 37.574 70.001 38.082 70.153 38.393C70.306 38.704 69.357 40.477 69.357 40.477C69.357 40.477 65.562 46.252 65.292 46.367C65.022 46.481 64.733 46.781 64.447 46.617C64.162 46.454 63.656 46.166 63.656 46.166C63.656 46.166 62.631 46.733 65.062 47.705C65.998 48.078 69.831 50.197 70.969 51.219C72.108 52.24 71.402 50.459 71.402 50.459C71.402 50.459 70.458 49.692 69.985 49.156C69.914 49.08 69.893 49.008 69.945 48.918C70.147 48.583 70.411 47.713 70.411 47.713ZM7.46999 40.602C7.46999 40.602 10.735 49.961 11.169 49.672C11.606 49.381 12.983 48.258 12.983 48.258L7.68599 39.622L7.46999 40.602ZM10.667 25.236C10.658 25.213 10.087 30.236 10.087 30.236L8.25699 37.456L14.337 47.408L20.462 42.661C20.462 42.661 15.202 36.999 12.558 31.609C10.992 28.416 10.667 25.236 10.667 25.236ZM28.855 55.791C27.084 52.123 24.924 55.295 23.104 52.496C28 49.084 32.212 57.651 36.953 56.994C35.737 54.926 34.514 53.364 33.283 52.136C33.354 52.178 33.427 52.221 33.496 52.261C33.79 52.428 35.37 53.381 35.64 53.003C34.981 52.229 34.366 51.647 33.535 51.029C33.052 50.665 32.55 50.243 32.017 49.955C31.428 49.639 31.085 49.6 30.494 49.413C30.015 49.264 29.633 49.173 29.285 49.132C26.099 47.349 22.869 46.589 19.598 44.048C18.869 44.699 18.221 45.428 17.804 45.775C17.69 45.867 15.004 47.962 14.895 48.051C14.397 48.462 13.927 48.411 15.54 49.462C15.358 51.267 17.391 50.615 17.919 51.299C18.144 51.591 17.828 51.458 18.1 51.679C22.694 55.427 24.326 56.757 28.855 55.791ZM51.798 60.899C46.305 57.073 42.471 56.217 38.508 57.954C40.672 61.103 41.711 57.702 43.734 60.021C40.588 64.15 35.47 56.809 31.872 58.301C33.113 59.848 34.381 61.029 35.659 61.956C35.22 61.723 34.792 61.464 34.386 61.234C34.131 61.089 32.75 60.265 32.574 60.643C33.187 61.351 33.746 61.875 34.483 62.424C34.913 62.744 35.362 63.121 35.824 63.367C36.332 63.638 36.613 63.657 37.115 63.8C37.699 63.969 38.744 64.084 39.559 64.089C43.647 65.72 47.675 65.832 51.128 67.836C49.187 64.34 57.585 65.651 51.798 60.899ZM65.011 3.758C63.83 3.213 63.05 3.105 63.05 3.105L61.165 10.135L67.005 4.737C67.006 4.737 66.19 4.302 65.011 3.758ZM31.869 17.482C31.869 17.482 33.106 17.966 33.252 16.1L30.471 15.834L31.869 17.482ZM31.453 6.012C33.324 6.624 28.806 9.233 28.753 9.225C35.401 10.303 36.846 6.457 37.356 5.131C37.836 3.88 39.53 0.552 39.53 0.552C39.53 0.552 32.427 1.689 28.961 3.122C22.081 5.965 21.614 12.735 21.614 12.735C21.614 12.735 25.857 4.179 31.453 6.012ZM28.46 11.368C27.609 11.703 27.121 12.477 27.364 13.097C27.607 13.717 27.919 13.655 28.766 13.321C29.617 12.986 31.338 13.15 31.092 12.531C30.849 11.911 29.309 11.035 28.46 11.368ZM30.854 18.899C30.584 18.962 30.042 19.408 29.803 19.269C29.718 19.218 29.627 19.128 29.53 19.121C29.486 19.596 29.945 19.789 30.13 19.852C30.48 19.974 30.921 20.597 31.287 20.649C31.503 21.187 32.003 21.023 32.195 20.987C32.523 20.884 34.447 18.687 34.749 18.408L31.963 19.322C31.52 19.63 31.327 18.787 30.854 18.899ZM22.038 19.443C22.766 25.894 29.843 28.082 31.875 30.316C29.097 22.685 24.849 25.568 24.039 16.981C24.006 16.629 23.863 13.254 24.888 10.154C22.077 14.386 21.773 17.097 22.038 19.443ZM50.426 7.76C52.387 7.23 58.497 8.491 59.283 5.027C58.145 6.205 50.524 6.327 50.426 7.76ZM48.429 4.529C50.989 3.72 58.497 3.949 58.598 1.665C54.088 0.402 48.531 2.247 48.429 4.529ZM40.305 4.302C41.306 3.582 38.865 7.186 38.666 7.753C37.063 12.349 35.573 12.27 35.406 13.265C35.217 14.411 35.584 14.069 36.722 14.238C37.863 14.408 38.376 14.245 38.013 15.112C37.749 15.742 37.843 15.599 37.812 16.452L40.696 16.537C40.242 16.666 38.884 17.075 37.75 17.355C37.734 17.524 37.717 17.707 37.694 17.918C37.507 19.647 39.217 18.325 38.174 20.683C37.051 23.221 43.484 22.244 43.484 22.244L43.491 22.688L43.448 23.654C44.455 23.114 44.958 23.357 46.45 23.391C50.803 23.495 53.259 24.166 53.259 24.166C53.259 24.166 51.776 16.111 54.109 15.993C56.444 15.875 57.997 11.536 57.997 11.536L53.956 12.265C53.956 12.265 53.782 11.146 52.05 13.286C50.347 15.389 47.213 16.328 47.213 16.328C47.213 16.328 48.725 14.083 49.033 11.705C49.003 11.935 41.423 12.217 44.29 6.104C45.388 3.76 46.742 3.367 46.742 3.367L43.76 3.595L50.672 0.208L45.158 0L42.406 0.419C42.406 0.419 35.771 7.566 40.305 4.302ZM37.979 80.081C27.625 77.147 34.317 62.153 27.039 61.151C28.296 63.507 25.209 80.579 37.979 80.081ZM43.566 74.897C44.078 78.151 38.32 77.686 41.299 81.465C41.656 79.098 47.593 78.313 43.566 74.897ZM34.281 69.503C37.154 69.13 34.195 79.546 39.087 79.497C39.094 78.051 38.437 67.653 34.281 69.503ZM30.957 80.801C29.524 82.737 28.399 88.641 29.945 90.209C28.803 90.164 26.521 88.395 26.803 90.502C32.018 92.756 35.45 93.887 42.884 94.529C42.557 92.242 38.985 92.935 39.497 91.209C40.872 89.367 44.023 90.209 44.719 87.338C44.423 81.975 36.871 81.997 30.957 80.801ZM31.835 82.301C31.889 82.322 31.938 82.34 31.981 82.354C31.213 93.508 28.781 88.833 31.835 82.301ZM41.34 88.112C41.497 87.225 41.652 86.341 41.809 85.454C44.323 85.356 43.671 89.061 41.34 88.112ZM69.323 24.182C69.414 22.31 67.969 20.721 66.097 20.63C64.225 20.54 62.634 21.984 62.546 23.856C62.454 25.729 63.9 27.319 65.772 27.408C67.644 27.499 69.233 26.055 69.323 24.182ZM65.776 25.007C65.582 24.297 65.386 23.588 65.191 22.878C64.583 24.082 64.04 23.259 65.014 22.052C66.005 20.822 66.551 24.716 66.716 25.316C67.362 24.961 67.154 25.359 67.436 25.65C67.54 26.026 65.582 26.292 65.225 25.82C65.159 25.577 65.99 25.778 65.776 25.007ZM59.536 22.54L58.911 19.745L59.378 18.502L62.458 15.193L68.521 19.654L68.893 21.432L77.308 11.709L74.829 9.765C75.107 10.406 75.11 11.093 74.66 11.702L74.393 11.887C72.719 14.149 67.797 10.401 69.869 8.157C70.344 7.64 70.985 7.461 71.652 7.519L67.907 5.291L56.268 20.345L59.536 22.54ZM67.393 11.743C67.791 11.206 69 11.072 68.631 11.57C69.064 12.505 66.391 12.833 68.59 13.895C68.715 11.944 71.282 12.081 71.981 13.636C72.385 14.536 71.227 17.498 70.21 16.394C69.509 15.632 72.365 14.81 70.71 13.585C69.171 12.447 69.736 15.069 68.779 15.168C68.464 15.403 67.207 13.953 67 13.766C66.083 12.944 66.705 12.675 67.393 11.743ZM71.481 10.804C73.486 12.286 74.825 10.66 72.82 9.179C70.75 7.159 69.479 9.322 71.481 10.804ZM67.758 40.47C65.448 37.926 61.654 36.761 57.483 36.188C57.498 36.185 57.509 36.185 57.524 36.178C57.532 35.972 57.487 35.766 57.481 35.558C57.469 35.153 57.555 34.765 57.553 34.362C57.552 33.933 57.59 33.541 57.656 33.116C57.679 32.963 57.846 32.852 57.946 32.745C58.089 32.594 58.05 32.767 58.191 32.918C58.279 33.017 58.614 32.876 58.721 32.978C58.932 33.176 59.308 33.135 59.548 33.117C60.064 33.076 61.032 32.736 60.922 31.98C60.867 31.613 61.028 31.666 60.886 31.384C61.176 31.275 61.158 31.162 61.459 31.064C61.829 30.945 62.216 30.606 62.308 30.142C62.379 29.788 62.273 29.428 62.056 29.173C61.906 28.996 62.265 28.99 62.159 28.78C62.316 28.583 62.061 28.606 62.239 28.415C62.434 28.21 62.26 27.878 62.085 27.704C61.612 27.231 60.902 27.018 60.304 26.992C60.391 26.765 60.673 26.877 60.709 26.54C60.74 26.26 60.536 26.112 60.325 26.055C60.033 25.977 59.456 26.054 59.16 26.151C59.017 26.199 58.908 26.301 58.754 26.308C59.063 26.131 58.799 25.749 58.601 25.608C58.246 25.354 57.667 25.485 57.314 25.664C56.797 25.927 55.423 25.764 55.441 26.528C55.447 26.652 55.559 26.769 55.287 26.733C55.007 26.695 54.933 26.796 54.739 27.031C54.478 27.342 54.074 27.717 54.231 28.145C54.295 28.319 54.245 28.31 54.173 28.517C53.665 28.431 53.131 28.698 53.306 29.616C53.388 30.058 53.571 30.596 53.942 30.633C53.963 30.675 53.899 30.692 53.884 30.736C53.684 30.82 53.923 30.708 53.718 30.838C53.482 30.987 53.444 31.25 53.5 31.56C53.627 32.263 54.432 32.763 54.978 32.839C55.177 32.866 55.516 33.07 55.672 32.862L55.763 32.833C55.808 32.812 55.87 32.819 55.916 32.833C56.015 33.328 56.048 33.933 55.913 34.398C55.798 34.791 55.711 35.137 55.507 35.482C55.406 35.653 55.28 35.788 55.171 35.93C52.497 35.692 49.753 35.63 47.209 35.554L47.251 35.361L47.385 31.879L45.637 31.719L45.048 35.479C42.04 35.352 39.467 35.113 37.858 34.389C43.621 38.815 63.222 47.263 60.539 41.096C58.987 37.534 64.713 38.594 67.758 40.47ZM52.18 26.459C52.358 26.195 47.109 25.414 40.682 25.828C40.149 25.862 35.44 26.627 33.889 27.299C33.914 27.461 35.071 35.746 35.268 30.857C35.362 28.555 35.389 28.492 35.415 28.53C39.312 27.012 42.31 25.988 44.257 25.749C44.32 25.742 48.36 27.774 49.711 29.634C49.779 29.602 48.031 26.921 52.18 26.459ZM40.939 32.282L41.039 31.745L41.158 28.726L39.783 29.264L39.431 32.254L40.939 32.282ZM37.584 32.796L37.684 32.271L37.801 29.312L36.427 29.839L36.077 32.769L37.584 32.796ZM90.826 59.063C89.619 59.515 89.908 60.256 89.6 60.684C87.237 63.965 81.184 60.155 80.607 60.318C80.354 60.391 82.21 61.352 82.214 62.308C82.218 63.366 83.253 63.729 83.356 64.136C83.164 64.865 84.077 65.686 85.368 65.827C86.159 65.911 85.746 66.122 85.746 66.122C85.261 66.278 85.624 66.081 84.858 66.354C84.793 67.313 87.116 66.92 85.813 70.112C85.803 70.167 84.469 73.321 84.204 74.28C84.271 74.483 87.762 70.204 89.847 65.944C90.019 65.59 91.444 61.879 91.663 60.66C91.601 60.634 90.814 59.754 91.642 58.86C91.844 58.639 91.475 58.819 90.826 59.063ZM86.183 29.615C86.092 29.364 85.493 28.814 84.219 28.49C84.529 29.123 84.529 30.096 84.949 31.092C84.168 30.19 83.239 29.283 82.053 29.89C82.492 30.152 82.724 31.023 83.268 31.669C81.507 30.971 79.743 30.304 79.391 30.698C80.429 31.397 81.472 32.848 82.749 33.605C81.835 33.763 80.965 34.356 80.433 36.015C80.742 35.514 81.481 35.892 82.345 35.816C80.753 37.118 80.037 38.441 80.236 38.882C80.648 38.498 82.561 37.726 84.225 36.821C83.843 37.891 83.507 39.151 83.868 39.455C83.918 39.103 85.719 38.236 86.332 37.309C86.46 38.351 86.58 39.669 87.987 39.619C87.766 39.283 88.094 38.274 87.76 37.405C88.72 38.53 90.377 39.748 91.825 39.222C91.095 39.055 89.975 37.007 88.929 35.914C90.005 36.716 91.385 37.77 92.342 36.306C91.906 36.232 90.799 35.22 89.693 34.779C90.572 34.307 91.208 33.248 91.065 32.181C90.725 32.466 89.978 32.346 89.296 32.548C89.597 32.172 89.879 31.721 90.06 31.151C90.245 30.336 90.262 30.374 90.275 29.428C89.996 30.315 88.852 30.68 88.108 31.385C88.629 29.945 89.092 28.145 88.151 26.384C88.046 27.055 86.919 28.878 86.468 30.59C86.443 30.276 86.363 29.949 86.183 29.615ZM88.393 32.258C89.116 32.855 89.415 34.402 88.879 35.217C88.511 35.775 87.631 36.248 87.115 36.493C86.48 36.793 85.908 36.806 85.235 36.728C84.578 36.594 83.55 36.233 83.485 35.374V35.045C83.416 34.887 83.386 34.737 83.357 34.563C83.212 33.699 83.608 33.04 84.178 32.541C85.219 31.63 87.28 31.339 88.393 32.258ZM84.003 34.558C84.024 34.698 84.049 34.815 84.101 34.944V35.205C84.154 35.893 84.941 36.179 85.447 36.287C85.964 36.349 86.401 36.339 86.888 36.1C87.284 35.902 87.962 35.526 88.243 35.08C88.655 34.429 88.424 33.194 87.87 32.718C87.016 31.985 85.432 32.218 84.633 32.945C84.196 33.341 83.891 33.867 84.003 34.558ZM26.736 80.116C26.736 79.958 26.765 79.843 26.801 79.686C26.852 79.471 26.905 79.254 26.957 79.04C27.035 78.726 27.036 78.423 27.037 78.101C27.037 78.068 26.922 77.997 26.739 77.915C26.771 78.204 26.72 78.489 26.544 78.423C26.398 78.366 26.22 77.97 26.208 77.708C26.06 77.657 25.9 77.606 25.735 77.56C25.763 77.849 25.713 78.124 25.537 78.058C25.406 78.009 25.253 77.685 25.212 77.431C25.043 77.394 24.88 77.368 24.731 77.351C24.815 77.691 24.787 78.14 24.571 78.058C24.426 78.003 24.252 77.619 24.234 77.359C24.123 77.382 24.04 77.427 24.001 77.496C23.847 77.769 23.383 78.908 23.282 79.205C23.266 79.256 23.277 79.293 23.224 79.293C23.224 79.293 23.391 79.467 23.28 79.447C22.797 79.351 22.99 79.953 22.99 79.953C23.859 81.111 26.159 80.838 26.641 80.742C26.786 80.715 26.811 80.381 26.721 80.258C26.727 80.212 26.736 80.167 26.736 80.116ZM16.162 61.155C17.366 62.812 19.004 62.362 19.585 63.806C21.612 67.442 22.039 75.409 26.052 75.255C26.571 71.386 21.254 66.913 20.929 63.065C20.778 61.285 21.906 60.47 21.349 59.035C20.926 57.458 20.028 55.615 18.045 55.509C18.787 55.992 19.708 57.172 20.389 59.357C17.58 57.866 16.697 56.421 16.784 55.706C15.239 56.533 14.948 59.212 16.162 61.155ZM16.193 77.52C16.19 76.69 16.322 74.26 14.387 72.518C12.225 70.573 9.30799 69.883 6.69499 70.631C4.95199 71.131 11.713 74.067 10.759 75.022C10.486 75.293 6.91699 73.305 8.17999 75.249C9.23699 76.872 12.555 80.218 13.597 81.263C13.677 81.343 13.959 81.236 13.959 81.236C13.959 81.236 14.372 81.164 15.173 80.431C15.711 79.938 16.198 78.612 16.193 77.52ZM13.576 66.022C8.99399 64.42 3.213 67.438 3.213 67.438C3.213 67.438 3.91299 68.815 4.92499 70.594C5.93699 70.073 7.08199 69.723 8.31999 69.614C12.809 69.221 16.728 72.073 17.071 75.987C17.278 78.368 16.107 80.592 14.148 82.057C15.396 83.205 16.314 83.991 16.314 83.991C16.314 83.991 19.668 83.579 20.841 77.878C22.1 71.747 17.757 67.485 13.576 66.022ZM22.739 80.393C20.953 82.426 21.168 82.032 19.733 84.291C19.669 84.393 19.552 84.561 19.807 84.801C21.467 86.367 23.055 86.99 22.917 87.207C22.779 87.426 21.519 86.92 19.286 85.283C19.243 85.252 19.098 85.289 19.057 85.353C18.976 85.113 17.781 85.796 22.129 88.105C22.337 88.214 23.349 88.746 24.421 89.144C25.505 86.812 26.109 85.281 26.68 81.156C25.929 81.356 23.104 81.422 22.739 80.393Z" fill="white"/>
</svg>
